<svg xmlns="http://www.w3.org/2000/svg" fill="none" viewBox="0 0 666 174">
  <defs/>
  <path fill="#fff" d="M84.7178 3.46758c3.9101-2.15824 8.6543-2.15824 12.5644 0L163.09 39.7919c4.145 2.2877 6.718 6.6474 6.718 11.3814v71.6537c0 4.734-2.573 9.093-6.718 11.381l-65.8078 36.324c-3.9101 2.159-8.6543 2.159-12.5644 0l-65.8083-36.324c-4.1445-2.288-6.7178-6.647-6.7178-11.381V51.1733c0-4.734 2.5733-9.0937 6.7178-11.3814L84.7178 3.46758z"/>
  <path fill="#F78DFF" d="M90.125 12l34.063 18.75L90.125 49.5 56.0625 30.75 90.125 12z"/>
  <path fill="#F56CFF" d="M56.0625 30.75L90.125 49.5 56.0625 68.25 22 49.5l34.0625-18.75zM124.187 30.75L158.25 49.5l-34.063 18.75L90.125 49.5l34.062-18.75z"/>
  <path fill="#F458FF" d="M90.125 49.5l34.063 18.75L90.125 87 56.0625 68.25 90.125 49.5z"/>
  <path fill="#EC3DF9" d="M90.125 87l34.063 18.75-34.063 18.75-34.0625-18.75L90.125 87z"/>
  <path fill="#F24BFE" d="M124.187 68.25L158.25 87l-34.063 18.75L90.125 87l34.062-18.75z"/>
  <path fill="#E43BF0" d="M124.187 105.75l34.063 18.75-34.063 18.75-34.062-18.75 34.062-18.75zM56.0625 105.75L90.125 124.5l-34.0625 18.75L22 124.5l34.0625-18.75z"/>
  <path fill="#F24BFE" d="M56.0625 68.25L90.125 87l-34.0625 18.75L22 87l34.0625-18.75z"/>
  <path fill="#D442DE" d="M90.125 124.5l34.063 18.75L90.125 162l-34.0625-18.75L90.125 124.5z"/>
  <path fill="#F458FF" d="M124.188 68.25L158.25 87V49.5l-34.062 18.75z"/>
  <path fill="#EC3DF9" d="M124.188 105.75l34.062 18.75V87l-34.062 18.75z"/>
  <path fill="#F458FF" d="M56.0625 68.25L22 49.5V87l34.0625-18.75z"/>
  <path fill="#EC3DF9" d="M56.0625 105.75L22 87v37.5l34.0625-18.75z"/>
  <mask id="a" width="464" height="91" x="201.4" y="39" fill="#000" maskUnits="userSpaceOnUse">
    <path fill="#fff" d="M201.4 39h464v91h-464z"/>
    <path d="M248.8 51c.867 0 1.567.3 2.1.9.6.5333.9 1.2333.9 2.1 0 .8-.3 1.5-.9 2.1-.533.5333-1.233.8-2.1.8h-33.3V82h28.8c.867 0 1.567.2667 2.1.8.6.5333.9 1.2333.9 2.1s-.3 1.5667-.9 2.1c-.533.5333-1.233.8-2.1.8h-28.8V118c0 .867-.3 1.6-.9 2.2-.533.533-1.233.8-2.1.8-.933 0-1.7-.267-2.3-.8-.533-.6-.8-1.333-.8-2.2V54c0-.8667.267-1.5667.8-2.1.6-.6 1.333-.9 2.2-.9h36.4zM301.276 70.2c.866 0 1.566.3 2.1.9.6.5333.9 1.2333.9 2.1v28.2c0 6.533-1.834 11.567-5.5 15.1-3.667 3.467-8.734 5.2-15.2 5.2-6.4 0-11.434-1.733-15.1-5.2-3.6-3.533-5.4-8.567-5.4-15.1V73.2c0-.8667.266-1.5667.8-2.1.6-.6 1.333-.9 2.2-.9.866 0 1.566.3 2.1.9.6.5333.9 1.2333.9 2.1v28.2c0 4.8 1.266 8.467 3.8 11 2.533 2.467 6.1 3.7 10.7 3.7 4.666 0 8.266-1.233 10.8-3.7 2.6-2.533 3.9-6.2 3.9-11V73.2c0-.8667.266-1.5667.8-2.1.6-.6 1.333-.9 2.2-.9zM342.109 68.7c3.134 0 6.034.3667 8.7 1.1 2.734.6667 4.9 1.6 6.5 2.8 1.667 1.2 2.5 2.5 2.5 3.9 0 .7333-.266 1.4-.8 2-.466.6-1.066.9-1.8.9-.666 0-1.233-.1333-1.7-.4-.4-.2667-.866-.6667-1.4-1.2-.866-.8667-1.7-1.5-2.5-1.9-1-.4667-2.333-.8333-4-1.1-1.6-.3333-3.333-.5-5.2-.5-3.666 0-7.033.9333-10.1 2.8-3 1.8667-5.366 4.4-7.1 7.6-1.733 3.2-2.6 6.7333-2.6 10.6 0 4 .834 7.6 2.5 10.8 1.667 3.2 3.967 5.733 6.9 7.6 3 1.8 6.4 2.7 10.2 2.7 2.4 0 4.3-.2 5.7-.6 1.467-.4 2.9-.967 4.3-1.7.467-.267 1.267-.867 2.4-1.8.534-.467 1-.8 1.4-1 .4-.267.834-.4 1.3-.4.8 0 1.434.267 1.9.8.467.467.7 1.1.7 1.9 0 1.133-.8 2.367-2.4 3.7-1.6 1.267-3.8 2.367-6.6 3.3-2.8.933-5.9 1.4-9.3 1.4-4.866 0-9.2-1.133-13-3.4-3.8-2.333-6.766-5.533-8.9-9.6-2.066-4.067-3.1-8.633-3.1-13.7 0-4.8667 1.067-9.3 3.2-13.3 2.134-4.0667 5.134-7.3 9-9.7 3.867-2.4 8.3-3.6 13.3-3.6zM394.677 69.5c6 0 10.466 1.9 13.4 5.7 2.933 3.7333 4.4 8.5667 4.4 14.5V118c0 .867-.3 1.6-.9 2.2-.534.533-1.234.8-2.1.8-.867 0-1.6-.267-2.2-.8-.534-.6-.8-1.333-.8-2.2V89.7c0-4.3333-1.034-7.8333-3.1-10.5-2.067-2.7333-5.3-4.1-9.7-4.1-2.8 0-5.467.6667-8 2-2.467 1.3333-4.467 3.1333-6 5.4-1.534 2.2-2.3 4.6-2.3 7.2V118c0 .867-.3 1.6-.9 2.2-.534.533-1.234.8-2.1.8-.867 0-1.6-.267-2.2-.8-.534-.6-.8-1.333-.8-2.2V50c0-.8667.266-1.5667.8-2.1.6-.6 1.333-.9 2.2-.9.866 0 1.566.3 2.1.9.6.5333.9 1.2333.9 2.1v29.3c1.8-2.8667 4.3-5.2 7.5-7 3.2-1.8667 6.466-2.8 9.8-2.8zM425.312 112.9c-.533-.867-.8-1.6-.8-2.2 0-.867.434-1.533 1.3-2 .401-.4.934-.6 1.6-.6.8 0 1.534.333 2.2 1 3.934 5.2 9.167 7.8 15.7 7.8 3.201 0 5.967-.733 8.3-2.2 2.4-1.533 3.6-3.733 3.6-6.6 0-2.8-1.1-4.9-3.3-6.3-2.2-1.4-5.266-2.6-9.2-3.6-5.533-1.4-9.866-3.2-13-5.4-3.133-2.2667-4.7-5.5667-4.7-9.9 0-2.7333.767-5.1667 2.3-7.3 1.534-2.2 3.6-3.9 6.2-5.1 2.667-1.2 5.667-1.8 9-1.8 2.867 0 5.734.5667 8.6 1.7 2.934 1.0667 5.434 2.8 7.501 5.2.6.4667.899 1.1333.899 2 0 .8-.333 1.5-1 2.1-.466.4-1.066.6-1.8.6-.666 0-1.266-.2667-1.8-.8-1.6-1.8-3.5-3.1667-5.7-4.1-2.2-.9333-4.566-1.4-7.1-1.4-3.133 0-5.833.7333-8.1 2.2-2.2 1.4667-3.3 3.6667-3.3 6.6.134 2.6667 1.334 4.7 3.6 6.1 2.334 1.4 5.734 2.6667 10.2 3.8 3.467.8667 6.334 1.8333 8.601 2.9 2.266 1.0667 4.1 2.5667 5.5 4.5 1.466 1.933 2.199 4.5 2.199 7.7 0 4.333-1.733 7.8-5.199 10.4-3.467 2.533-7.767 3.8-12.901 3.8-8.133 0-14.599-3.033-19.4-9.1zM480.887 118c0 .867-.3 1.6-.9 2.2-.533.533-1.233.8-2.1.8-.866 0-1.599-.267-2.199-.8-.534-.6-.801-1.333-.801-2.2V72c0-.8667.267-1.5667.801-2.1.6-.6 1.333-.9 2.199-.9.867 0 1.567.3 2.1.9.6.5333.9 1.2333.9 2.1v46zm-3-55.7c-1.333 0-2.366-.3-3.099-.9-.734-.6667-1.1-1.6-1.1-2.8v-1c0-1.2.366-2.1 1.1-2.7.8-.6667 1.866-1 3.199-1 2.667 0 4 1.2333 4 3.7v1c0 1.2-.366 2.1333-1.1 2.8-.666.6-1.666.9-3 .9zM537.974 69.9c.867 0 1.567.3 2.1.9.6.6.9 1.3333.9 2.2v45c0 .867-.3 1.6-.9 2.2-.533.533-1.233.8-2.1.8-.866 0-1.6-.267-2.2-.8-.533-.6-.8-1.333-.8-2.2v-6.7c-1.666 3-4.166 5.533-7.5 7.6-3.333 2.067-6.966 3.1-10.9 3.1-4.466 0-8.5-1.167-12.1-3.5-3.533-2.333-6.333-5.533-8.4-9.6-2-4.067-3-8.633-3-13.7 0-5.0667 1.034-9.6 3.1-13.6 2.067-4.0667 4.867-7.2333 8.4-9.5 3.6-2.2667 7.567-3.4 11.9-3.4 4 0 7.667.9667 11 2.9 3.334 1.9333 5.834 4.4667 7.5 7.6V73c0-.8667.267-1.6.8-2.2.6-.6 1.334-.9 2.2-.9zm-20.8 46.5c3.467 0 6.567-.9 9.3-2.7 2.8-1.867 4.967-4.4 6.5-7.6 1.6-3.267 2.4-6.9 2.4-10.9 0-3.8667-.8-7.4-2.4-10.6-1.533-3.2-3.7-5.7-6.5-7.5-2.733-1.8667-5.833-2.8-9.3-2.8-3.466 0-6.6.9-9.4 2.7-2.733 1.8-4.9 4.3-6.5 7.5-1.533 3.1333-2.3 6.7-2.3 10.7 0 4 .767 7.633 2.3 10.9 1.534 3.2 3.667 5.733 6.4 7.6 2.8 1.8 5.967 2.7 9.5 2.7zM574.73 122c-4.133 0-7.866-1.133-11.2-3.4-3.333-2.333-5.9-5.433-7.7-9.3-.333-.533-.5-1.067-.5-1.6 0-.8.3-1.467.9-2 .667-.533 1.367-.8 2.1-.8 1.067 0 2 .567 2.8 1.7 1.267 2.867 3.1 5.167 5.5 6.9 2.4 1.667 5.1 2.5 8.1 2.5 4.6 0 8.334-1.4 11.2-4.2 2.867-2.867 4.3-6.6 4.3-11.2V54c0-.8667.3-1.5667.9-2.1.6-.6 1.367-.9 2.3-.9.934 0 1.667.3 2.2.9.6.5333.9 1.2333.9 2.1v46.6c0 4.067-.933 7.733-2.8 11-1.866 3.267-4.466 5.833-7.8 7.7-3.266 1.8-7 2.7-11.2 2.7zM634.257 122c-4.8 0-9.067-.8-12.8-2.4-3.667-1.6-7.233-4.1-10.7-7.5-.8-.667-1.2-1.467-1.2-2.4 0-.8.3-1.533.9-2.2.667-.667 1.4-1 2.2-1 .8 0 1.533.333 2.2 1 5.2 5.733 11.7 8.6 19.5 8.6 4.8 0 8.767-1.133 11.9-3.4 3.2-2.267 4.8-5.233 4.8-8.9 0-2.867-.8-5.2333-2.4-7.1-1.533-1.9333-3.567-3.5-6.1-4.7-2.533-1.2-5.767-2.4333-9.7-3.7-4.267-1.2667-7.867-2.6667-10.8-4.2-2.867-1.5333-5.2-3.5667-7-6.1-1.8-2.6-2.7-5.8667-2.7-9.8 0-3.5333.933-6.6667 2.8-9.4 1.933-2.7333 4.6-4.8667 8-6.4 3.467-1.6 7.433-2.4 11.9-2.4 4.067 0 7.867.7 11.4 2.1 3.6 1.3333 6.467 3.2667 8.6 5.8 1 1.1333 1.5 2.1 1.5 2.9 0 .7333-.333 1.4333-1 2.1-.667.6-1.4.9-2.2.9-.667 0-1.233-.2333-1.7-.7-1.8-2.1333-4.2-3.8667-7.2-5.2-3-1.3333-6.133-2-9.4-2-4.867 0-8.833 1.1-11.9 3.3-3.067 2.1333-4.6 5.0667-4.6 8.8 0 3.8667 1.467 6.8333 4.4 8.9 2.933 2.0667 7.133 3.9667 12.6 5.7 4.733 1.4 8.6 2.8333 11.6 4.3s5.433 3.5667 7.3 6.3c1.933 2.6667 2.9 6.2 2.9 10.6 0 3.4-1 6.5-3 9.3-1.933 2.733-4.667 4.9-8.2 6.5-3.467 1.6-7.433 2.4-11.9 2.4z"/>
  </mask>
  <path fill="#000" d="M248.8 51c.867 0 1.567.3 2.1.9.6.5333.9 1.2333.9 2.1 0 .8-.3 1.5-.9 2.1-.533.5333-1.233.8-2.1.8h-33.3V82h28.8c.867 0 1.567.2667 2.1.8.6.5333.9 1.2333.9 2.1s-.3 1.5667-.9 2.1c-.533.5333-1.233.8-2.1.8h-28.8V118c0 .867-.3 1.6-.9 2.2-.533.533-1.233.8-2.1.8-.933 0-1.7-.267-2.3-.8-.533-.6-.8-1.333-.8-2.2V54c0-.8667.267-1.5667.8-2.1.6-.6 1.333-.9 2.2-.9h36.4zM301.276 70.2c.866 0 1.566.3 2.1.9.6.5333.9 1.2333.9 2.1v28.2c0 6.533-1.834 11.567-5.5 15.1-3.667 3.467-8.734 5.2-15.2 5.2-6.4 0-11.434-1.733-15.1-5.2-3.6-3.533-5.4-8.567-5.4-15.1V73.2c0-.8667.266-1.5667.8-2.1.6-.6 1.333-.9 2.2-.9.866 0 1.566.3 2.1.9.6.5333.9 1.2333.9 2.1v28.2c0 4.8 1.266 8.467 3.8 11 2.533 2.467 6.1 3.7 10.7 3.7 4.666 0 8.266-1.233 10.8-3.7 2.6-2.533 3.9-6.2 3.9-11V73.2c0-.8667.266-1.5667.8-2.1.6-.6 1.333-.9 2.2-.9zM342.109 68.7c3.134 0 6.034.3667 8.7 1.1 2.734.6667 4.9 1.6 6.5 2.8 1.667 1.2 2.5 2.5 2.5 3.9 0 .7333-.266 1.4-.8 2-.466.6-1.066.9-1.8.9-.666 0-1.233-.1333-1.7-.4-.4-.2667-.866-.6667-1.4-1.2-.866-.8667-1.7-1.5-2.5-1.9-1-.4667-2.333-.8333-4-1.1-1.6-.3333-3.333-.5-5.2-.5-3.666 0-7.033.9333-10.1 2.8-3 1.8667-5.366 4.4-7.1 7.6-1.733 3.2-2.6 6.7333-2.6 10.6 0 4 .834 7.6 2.5 10.8 1.667 3.2 3.967 5.733 6.9 7.6 3 1.8 6.4 2.7 10.2 2.7 2.4 0 4.3-.2 5.7-.6 1.467-.4 2.9-.967 4.3-1.7.467-.267 1.267-.867 2.4-1.8.534-.467 1-.8 1.4-1 .4-.267.834-.4 1.3-.4.8 0 1.434.267 1.9.8.467.467.7 1.1.7 1.9 0 1.133-.8 2.367-2.4 3.7-1.6 1.267-3.8 2.367-6.6 3.3-2.8.933-5.9 1.4-9.3 1.4-4.866 0-9.2-1.133-13-3.4-3.8-2.333-6.766-5.533-8.9-9.6-2.066-4.067-3.1-8.633-3.1-13.7 0-4.8667 1.067-9.3 3.2-13.3 2.134-4.0667 5.134-7.3 9-9.7 3.867-2.4 8.3-3.6 13.3-3.6zM394.677 69.5c6 0 10.466 1.9 13.4 5.7 2.933 3.7333 4.4 8.5667 4.4 14.5V118c0 .867-.3 1.6-.9 2.2-.534.533-1.234.8-2.1.8-.867 0-1.6-.267-2.2-.8-.534-.6-.8-1.333-.8-2.2V89.7c0-4.3333-1.034-7.8333-3.1-10.5-2.067-2.7333-5.3-4.1-9.7-4.1-2.8 0-5.467.6667-8 2-2.467 1.3333-4.467 3.1333-6 5.4-1.534 2.2-2.3 4.6-2.3 7.2V118c0 .867-.3 1.6-.9 2.2-.534.533-1.234.8-2.1.8-.867 0-1.6-.267-2.2-.8-.534-.6-.8-1.333-.8-2.2V50c0-.8667.266-1.5667.8-2.1.6-.6 1.333-.9 2.2-.9.866 0 1.566.3 2.1.9.6.5333.9 1.2333.9 2.1v29.3c1.8-2.8667 4.3-5.2 7.5-7 3.2-1.8667 6.466-2.8 9.8-2.8zM425.312 112.9c-.533-.867-.8-1.6-.8-2.2 0-.867.434-1.533 1.3-2 .401-.4.934-.6 1.6-.6.8 0 1.534.333 2.2 1 3.934 5.2 9.167 7.8 15.7 7.8 3.201 0 5.967-.733 8.3-2.2 2.4-1.533 3.6-3.733 3.6-6.6 0-2.8-1.1-4.9-3.3-6.3-2.2-1.4-5.266-2.6-9.2-3.6-5.533-1.4-9.866-3.2-13-5.4-3.133-2.2667-4.7-5.5667-4.7-9.9 0-2.7333.767-5.1667 2.3-7.3 1.534-2.2 3.6-3.9 6.2-5.1 2.667-1.2 5.667-1.8 9-1.8 2.867 0 5.734.5667 8.6 1.7 2.934 1.0667 5.434 2.8 7.501 5.2.6.4667.899 1.1333.899 2 0 .8-.333 1.5-1 2.1-.466.4-1.066.6-1.8.6-.666 0-1.266-.2667-1.8-.8-1.6-1.8-3.5-3.1667-5.7-4.1-2.2-.9333-4.566-1.4-7.1-1.4-3.133 0-5.833.7333-8.1 2.2-2.2 1.4667-3.3 3.6667-3.3 6.6.134 2.6667 1.334 4.7 3.6 6.1 2.334 1.4 5.734 2.6667 10.2 3.8 3.467.8667 6.334 1.8333 8.601 2.9 2.266 1.0667 4.1 2.5667 5.5 4.5 1.466 1.933 2.199 4.5 2.199 7.7 0 4.333-1.733 7.8-5.199 10.4-3.467 2.533-7.767 3.8-12.901 3.8-8.133 0-14.599-3.033-19.4-9.1zM480.887 118c0 .867-.3 1.6-.9 2.2-.533.533-1.233.8-2.1.8-.866 0-1.599-.267-2.199-.8-.534-.6-.801-1.333-.801-2.2V72c0-.8667.267-1.5667.801-2.1.6-.6 1.333-.9 2.199-.9.867 0 1.567.3 2.1.9.6.5333.9 1.2333.9 2.1v46zm-3-55.7c-1.333 0-2.366-.3-3.099-.9-.734-.6667-1.1-1.6-1.1-2.8v-1c0-1.2.366-2.1 1.1-2.7.8-.6667 1.866-1 3.199-1 2.667 0 4 1.2333 4 3.7v1c0 1.2-.366 2.1333-1.1 2.8-.666.6-1.666.9-3 .9zM537.974 69.9c.867 0 1.567.3 2.1.9.6.6.9 1.3333.9 2.2v45c0 .867-.3 1.6-.9 2.2-.533.533-1.233.8-2.1.8-.866 0-1.6-.267-2.2-.8-.533-.6-.8-1.333-.8-2.2v-6.7c-1.666 3-4.166 5.533-7.5 7.6-3.333 2.067-6.966 3.1-10.9 3.1-4.466 0-8.5-1.167-12.1-3.5-3.533-2.333-6.333-5.533-8.4-9.6-2-4.067-3-8.633-3-13.7 0-5.0667 1.034-9.6 3.1-13.6 2.067-4.0667 4.867-7.2333 8.4-9.5 3.6-2.2667 7.567-3.4 11.9-3.4 4 0 7.667.9667 11 2.9 3.334 1.9333 5.834 4.4667 7.5 7.6V73c0-.8667.267-1.6.8-2.2.6-.6 1.334-.9 2.2-.9zm-20.8 46.5c3.467 0 6.567-.9 9.3-2.7 2.8-1.867 4.967-4.4 6.5-7.6 1.6-3.267 2.4-6.9 2.4-10.9 0-3.8667-.8-7.4-2.4-10.6-1.533-3.2-3.7-5.7-6.5-7.5-2.733-1.8667-5.833-2.8-9.3-2.8-3.466 0-6.6.9-9.4 2.7-2.733 1.8-4.9 4.3-6.5 7.5-1.533 3.1333-2.3 6.7-2.3 10.7 0 4 .767 7.633 2.3 10.9 1.534 3.2 3.667 5.733 6.4 7.6 2.8 1.8 5.967 2.7 9.5 2.7zM574.73 122c-4.133 0-7.866-1.133-11.2-3.4-3.333-2.333-5.9-5.433-7.7-9.3-.333-.533-.5-1.067-.5-1.6 0-.8.3-1.467.9-2 .667-.533 1.367-.8 2.1-.8 1.067 0 2 .567 2.8 1.7 1.267 2.867 3.1 5.167 5.5 6.9 2.4 1.667 5.1 2.5 8.1 2.5 4.6 0 8.334-1.4 11.2-4.2 2.867-2.867 4.3-6.6 4.3-11.2V54c0-.8667.3-1.5667.9-2.1.6-.6 1.367-.9 2.3-.9.934 0 1.667.3 2.2.9.6.5333.9 1.2333.9 2.1v46.6c0 4.067-.933 7.733-2.8 11-1.866 3.267-4.466 5.833-7.8 7.7-3.266 1.8-7 2.7-11.2 2.7zM634.257 122c-4.8 0-9.067-.8-12.8-2.4-3.667-1.6-7.233-4.1-10.7-7.5-.8-.667-1.2-1.467-1.2-2.4 0-.8.3-1.533.9-2.2.667-.667 1.4-1 2.2-1 .8 0 1.533.333 2.2 1 5.2 5.733 11.7 8.6 19.5 8.6 4.8 0 8.767-1.133 11.9-3.4 3.2-2.267 4.8-5.233 4.8-8.9 0-2.867-.8-5.2333-2.4-7.1-1.533-1.9333-3.567-3.5-6.1-4.7-2.533-1.2-5.767-2.4333-9.7-3.7-4.267-1.2667-7.867-2.6667-10.8-4.2-2.867-1.5333-5.2-3.5667-7-6.1-1.8-2.6-2.7-5.8667-2.7-9.8 0-3.5333.933-6.6667 2.8-9.4 1.933-2.7333 4.6-4.8667 8-6.4 3.467-1.6 7.433-2.4 11.9-2.4 4.067 0 7.867.7 11.4 2.1 3.6 1.3333 6.467 3.2667 8.6 5.8 1 1.1333 1.5 2.1 1.5 2.9 0 .7333-.333 1.4333-1 2.1-.667.6-1.4.9-2.2.9-.667 0-1.233-.2333-1.7-.7-1.8-2.1333-4.2-3.8667-7.2-5.2-3-1.3333-6.133-2-9.4-2-4.867 0-8.833 1.1-11.9 3.3-3.067 2.1333-4.6 5.0667-4.6 8.8 0 3.8667 1.467 6.8333 4.4 8.9 2.933 2.0667 7.133 3.9667 12.6 5.7 4.733 1.4 8.6 2.8333 11.6 4.3s5.433 3.5667 7.3 6.3c1.933 2.6667 2.9 6.2 2.9 10.6 0 3.4-1 6.5-3 9.3-1.933 2.733-4.667 4.9-8.2 6.5-3.467 1.6-7.433 2.4-11.9 2.4z"/>
  <path stroke="#fff" stroke-width="16" d="M248.8 51c.867 0 1.567.3 2.1.9.6.5333.9 1.2333.9 2.1 0 .8-.3 1.5-.9 2.1-.533.5333-1.233.8-2.1.8h-33.3V82h28.8c.867 0 1.567.2667 2.1.8.6.5333.9 1.2333.9 2.1s-.3 1.5667-.9 2.1c-.533.5333-1.233.8-2.1.8h-28.8V118c0 .867-.3 1.6-.9 2.2-.533.533-1.233.8-2.1.8-.933 0-1.7-.267-2.3-.8-.533-.6-.8-1.333-.8-2.2V54c0-.8667.267-1.5667.8-2.1.6-.6 1.333-.9 2.2-.9h36.4zM301.276 70.2c.866 0 1.566.3 2.1.9.6.5333.9 1.2333.9 2.1v28.2c0 6.533-1.834 11.567-5.5 15.1-3.667 3.467-8.734 5.2-15.2 5.2-6.4 0-11.434-1.733-15.1-5.2-3.6-3.533-5.4-8.567-5.4-15.1V73.2c0-.8667.266-1.5667.8-2.1.6-.6 1.333-.9 2.2-.9.866 0 1.566.3 2.1.9.6.5333.9 1.2333.9 2.1v28.2c0 4.8 1.266 8.467 3.8 11 2.533 2.467 6.1 3.7 10.7 3.7 4.666 0 8.266-1.233 10.8-3.7 2.6-2.533 3.9-6.2 3.9-11V73.2c0-.8667.266-1.5667.8-2.1.6-.6 1.333-.9 2.2-.9zM342.109 68.7c3.134 0 6.034.3667 8.7 1.1 2.734.6667 4.9 1.6 6.5 2.8 1.667 1.2 2.5 2.5 2.5 3.9 0 .7333-.266 1.4-.8 2-.466.6-1.066.9-1.8.9-.666 0-1.233-.1333-1.7-.4-.4-.2667-.866-.6667-1.4-1.2-.866-.8667-1.7-1.5-2.5-1.9-1-.4667-2.333-.8333-4-1.1-1.6-.3333-3.333-.5-5.2-.5-3.666 0-7.033.9333-10.1 2.8-3 1.8667-5.366 4.4-7.1 7.6-1.733 3.2-2.6 6.7333-2.6 10.6 0 4 .834 7.6 2.5 10.8 1.667 3.2 3.967 5.733 6.9 7.6 3 1.8 6.4 2.7 10.2 2.7 2.4 0 4.3-.2 5.7-.6 1.467-.4 2.9-.967 4.3-1.7.467-.267 1.267-.867 2.4-1.8.534-.467 1-.8 1.4-1 .4-.267.834-.4 1.3-.4.8 0 1.434.267 1.9.8.467.467.7 1.1.7 1.9 0 1.133-.8 2.367-2.4 3.7-1.6 1.267-3.8 2.367-6.6 3.3-2.8.933-5.9 1.4-9.3 1.4-4.866 0-9.2-1.133-13-3.4-3.8-2.333-6.766-5.533-8.9-9.6-2.066-4.067-3.1-8.633-3.1-13.7 0-4.8667 1.067-9.3 3.2-13.3 2.134-4.0667 5.134-7.3 9-9.7 3.867-2.4 8.3-3.6 13.3-3.6zM394.677 69.5c6 0 10.466 1.9 13.4 5.7 2.933 3.7333 4.4 8.5667 4.4 14.5V118c0 .867-.3 1.6-.9 2.2-.534.533-1.234.8-2.1.8-.867 0-1.6-.267-2.2-.8-.534-.6-.8-1.333-.8-2.2V89.7c0-4.3333-1.034-7.8333-3.1-10.5-2.067-2.7333-5.3-4.1-9.7-4.1-2.8 0-5.467.6667-8 2-2.467 1.3333-4.467 3.1333-6 5.4-1.534 2.2-2.3 4.6-2.3 7.2V118c0 .867-.3 1.6-.9 2.2-.534.533-1.234.8-2.1.8-.867 0-1.6-.267-2.2-.8-.534-.6-.8-1.333-.8-2.2V50c0-.8667.266-1.5667.8-2.1.6-.6 1.333-.9 2.2-.9.866 0 1.566.3 2.1.9.6.5333.9 1.2333.9 2.1v29.3c1.8-2.8667 4.3-5.2 7.5-7 3.2-1.8667 6.466-2.8 9.8-2.8zM425.312 112.9c-.533-.867-.8-1.6-.8-2.2 0-.867.434-1.533 1.3-2 .401-.4.934-.6 1.6-.6.8 0 1.534.333 2.2 1 3.934 5.2 9.167 7.8 15.7 7.8 3.201 0 5.967-.733 8.3-2.2 2.4-1.533 3.6-3.733 3.6-6.6 0-2.8-1.1-4.9-3.3-6.3-2.2-1.4-5.266-2.6-9.2-3.6-5.533-1.4-9.866-3.2-13-5.4-3.133-2.2667-4.7-5.5667-4.7-9.9 0-2.7333.767-5.1667 2.3-7.3 1.534-2.2 3.6-3.9 6.2-5.1 2.667-1.2 5.667-1.8 9-1.8 2.867 0 5.734.5667 8.6 1.7 2.934 1.0667 5.434 2.8 7.501 5.2.6.4667.899 1.1333.899 2 0 .8-.333 1.5-1 2.1-.466.4-1.066.6-1.8.6-.666 0-1.266-.2667-1.8-.8-1.6-1.8-3.5-3.1667-5.7-4.1-2.2-.9333-4.566-1.4-7.1-1.4-3.133 0-5.833.7333-8.1 2.2-2.2 1.4667-3.3 3.6667-3.3 6.6.134 2.6667 1.334 4.7 3.6 6.1 2.334 1.4 5.734 2.6667 10.2 3.8 3.467.8667 6.334 1.8333 8.601 2.9 2.266 1.0667 4.1 2.5667 5.5 4.5 1.466 1.933 2.199 4.5 2.199 7.7 0 4.333-1.733 7.8-5.199 10.4-3.467 2.533-7.767 3.8-12.901 3.8-8.133 0-14.599-3.033-19.4-9.1zM480.887 118c0 .867-.3 1.6-.9 2.2-.533.533-1.233.8-2.1.8-.866 0-1.599-.267-2.199-.8-.534-.6-.801-1.333-.801-2.2V72c0-.8667.267-1.5667.801-2.1.6-.6 1.333-.9 2.199-.9.867 0 1.567.3 2.1.9.6.5333.9 1.2333.9 2.1v46zm-3-55.7c-1.333 0-2.366-.3-3.099-.9-.734-.6667-1.1-1.6-1.1-2.8v-1c0-1.2.366-2.1 1.1-2.7.8-.6667 1.866-1 3.199-1 2.667 0 4 1.2333 4 3.7v1c0 1.2-.366 2.1333-1.1 2.8-.666.6-1.666.9-3 .9zM537.974 69.9c.867 0 1.567.3 2.1.9.6.6.9 1.3333.9 2.2v45c0 .867-.3 1.6-.9 2.2-.533.533-1.233.8-2.1.8-.866 0-1.6-.267-2.2-.8-.533-.6-.8-1.333-.8-2.2v-6.7c-1.666 3-4.166 5.533-7.5 7.6-3.333 2.067-6.966 3.1-10.9 3.1-4.466 0-8.5-1.167-12.1-3.5-3.533-2.333-6.333-5.533-8.4-9.6-2-4.067-3-8.633-3-13.7 0-5.0667 1.034-9.6 3.1-13.6 2.067-4.0667 4.867-7.2333 8.4-9.5 3.6-2.2667 7.567-3.4 11.9-3.4 4 0 7.667.9667 11 2.9 3.334 1.9333 5.834 4.4667 7.5 7.6V73c0-.8667.267-1.6.8-2.2.6-.6 1.334-.9 2.2-.9zm-20.8 46.5c3.467 0 6.567-.9 9.3-2.7 2.8-1.867 4.967-4.4 6.5-7.6 1.6-3.267 2.4-6.9 2.4-10.9 0-3.8667-.8-7.4-2.4-10.6-1.533-3.2-3.7-5.7-6.5-7.5-2.733-1.8667-5.833-2.8-9.3-2.8-3.466 0-6.6.9-9.4 2.7-2.733 1.8-4.9 4.3-6.5 7.5-1.533 3.1333-2.3 6.7-2.3 10.7 0 4 .767 7.633 2.3 10.9 1.534 3.2 3.667 5.733 6.4 7.6 2.8 1.8 5.967 2.7 9.5 2.7zM574.73 122c-4.133 0-7.866-1.133-11.2-3.4-3.333-2.333-5.9-5.433-7.7-9.3-.333-.533-.5-1.067-.5-1.6 0-.8.3-1.467.9-2 .667-.533 1.367-.8 2.1-.8 1.067 0 2 .567 2.8 1.7 1.267 2.867 3.1 5.167 5.5 6.9 2.4 1.667 5.1 2.5 8.1 2.5 4.6 0 8.334-1.4 11.2-4.2 2.867-2.867 4.3-6.6 4.3-11.2V54c0-.8667.3-1.5667.9-2.1.6-.6 1.367-.9 2.3-.9.934 0 1.667.3 2.2.9.6.5333.9 1.2333.9 2.1v46.6c0 4.067-.933 7.733-2.8 11-1.866 3.267-4.466 5.833-7.8 7.7-3.266 1.8-7 2.7-11.2 2.7zM634.257 122c-4.8 0-9.067-.8-12.8-2.4-3.667-1.6-7.233-4.1-10.7-7.5-.8-.667-1.2-1.467-1.2-2.4 0-.8.3-1.533.9-2.2.667-.667 1.4-1 2.2-1 .8 0 1.533.333 2.2 1 5.2 5.733 11.7 8.6 19.5 8.6 4.8 0 8.767-1.133 11.9-3.4 3.2-2.267 4.8-5.233 4.8-8.9 0-2.867-.8-5.2333-2.4-7.1-1.533-1.9333-3.567-3.5-6.1-4.7-2.533-1.2-5.767-2.4333-9.7-3.7-4.267-1.2667-7.867-2.6667-10.8-4.2-2.867-1.5333-5.2-3.5667-7-6.1-1.8-2.6-2.7-5.8667-2.7-9.8 0-3.5333.933-6.6667 2.8-9.4 1.933-2.7333 4.6-4.8667 8-6.4 3.467-1.6 7.433-2.4 11.9-2.4 4.067 0 7.867.7 11.4 2.1 3.6 1.3333 6.467 3.2667 8.6 5.8 1 1.1333 1.5 2.1 1.5 2.9 0 .7333-.333 1.4333-1 2.1-.667.6-1.4.9-2.2.9-.667 0-1.233-.2333-1.7-.7-1.8-2.1333-4.2-3.8667-7.2-5.2-3-1.3333-6.133-2-9.4-2-4.867 0-8.833 1.1-11.9 3.3-3.067 2.1333-4.6 5.0667-4.6 8.8 0 3.8667 1.467 6.8333 4.4 8.9 2.933 2.0667 7.133 3.9667 12.6 5.7 4.733 1.4 8.6 2.8333 11.6 4.3s5.433 3.5667 7.3 6.3c1.933 2.6667 2.9 6.2 2.9 10.6 0 3.4-1 6.5-3 9.3-1.933 2.733-4.667 4.9-8.2 6.5-3.467 1.6-7.433 2.4-11.9 2.4z" mask="url(#a)"/>
</svg>
