<svg width="632" height="151" fill="none" xmlns="http://www.w3.org/2000/svg"><path fill="#fff" d="M0 0h632v151H0z"/><path d="M49 106.109V49.378h40.578v5.51H55.236V75.15h22.517v5.43H55.236v25.529H49zM106.385 65.505v24.476c0 3.566 1.026 6.402 3.078 8.51 2.052 2.107 4.806 3.16 8.261 3.16 2.43 0 4.59-.54 6.48-1.621 1.944-1.134 3.51-2.701 4.697-4.7V65.505h5.994v40.604h-5.994v-4.701c-1.565 1.837-3.428 3.215-5.588 4.133-2.106.919-4.482 1.378-7.127 1.378-4.644 0-8.424-1.459-11.339-4.376-2.916-2.918-4.374-6.7-4.374-11.347v-25.69h5.912zM171.328 101.408c2.16 0 4.239-.432 6.236-1.297 1.998-.864 3.861-2.134 5.589-3.809l3.726 4.052a23.999 23.999 0 01-7.29 4.782 21.522 21.522 0 01-8.423 1.702c-2.862 0-5.562-.54-8.099-1.621-2.538-1.081-4.725-2.566-6.561-4.457-1.836-1.891-3.294-4.134-4.373-6.727-1.08-2.593-1.62-5.349-1.62-8.267 0-2.917.54-5.646 1.62-8.185 1.079-2.593 2.537-4.836 4.373-6.727 1.836-1.89 4.023-3.376 6.561-4.457 2.537-1.135 5.237-1.702 8.099-1.702 2.916 0 5.75.567 8.504 1.702 2.808 1.135 5.265 2.701 7.371 4.7l-3.807 4.377a17.372 17.372 0 00-5.589-3.89c-2.105-.919-4.238-1.378-6.398-1.378-2.052 0-3.996.405-5.832 1.216a14.903 14.903 0 00-4.778 3.323c-1.296 1.404-2.322 3.052-3.078 4.943-.756 1.891-1.134 3.917-1.134 6.078 0 2.216.378 4.296 1.134 6.24.81 1.892 1.863 3.54 3.159 4.945 1.35 1.35 2.943 2.43 4.778 3.241a14.274 14.274 0 005.832 1.216zM201.19 106.109V49.378L207.183 48v22.287c1.566-1.837 3.429-3.215 5.589-4.133 2.159-.973 4.562-1.459 7.208-1.459 4.59 0 8.342 1.459 11.258 4.376 2.916 2.918 4.374 6.7 4.374 11.347v25.691h-5.913V81.633c0-3.566-1.026-6.402-3.078-8.51-2.051-2.107-4.805-3.16-8.261-3.16-2.43 0-4.616.54-6.56 1.62-1.89 1.081-3.429 2.621-4.617 4.62v29.906h-5.993zM248.8 100.516l3.644-3.89a21 21 0 006.156 4.053c2.322.918 4.67 1.377 7.046 1.377 3.24 0 5.886-.675 7.937-2.026 2.052-1.35 3.078-3.106 3.078-5.268 0-1.729-.621-3.08-1.863-4.052-1.188-1.026-3.077-1.729-5.669-2.107l-7.047-.972c-4.049-.595-7.073-1.784-9.071-3.566-1.944-1.837-2.916-4.296-2.916-7.375 0-3.404 1.431-6.214 4.293-8.429 2.862-2.27 6.507-3.404 10.934-3.404 2.916 0 5.67.432 8.261 1.297 2.646.864 5.211 2.215 7.695 4.052l-3.159 4.052c-2.268-1.513-4.482-2.647-6.641-3.404a19.033 19.033 0 00-6.48-1.134c-2.754 0-5.021.621-6.803 1.864-1.728 1.242-2.592 2.863-2.592 4.862 0 1.73.594 3.08 1.782 4.053 1.188.918 3.105 1.567 5.75 1.945l7.047.972c4.049.54 7.073 1.756 9.071 3.647 2.052 1.837 3.078 4.296 3.078 7.375 0 1.73-.432 3.377-1.296 4.944-.81 1.513-1.971 2.836-3.483 3.971-1.458 1.081-3.186 1.945-5.183 2.593-1.998.595-4.158.892-6.48.892-3.348 0-6.506-.54-9.476-1.621-2.916-1.135-5.454-2.701-7.613-4.701zM299.363 57.725c-1.08 0-2.025-.405-2.835-1.215s-1.215-1.756-1.215-2.837c0-1.135.405-2.08 1.215-2.837.81-.81 1.755-1.215 2.835-1.215 1.134 0 2.078.405 2.834 1.215.81.757 1.215 1.703 1.215 2.837 0 1.08-.405 2.026-1.215 2.837-.756.81-1.7 1.215-2.834 1.215zm2.996 7.78v40.604h-5.993V65.506h5.993zM332.667 106.838c-4.428 0-8.046-1.135-10.853-3.404-2.754-2.269-4.131-5.214-4.131-8.834 0-3.782 1.458-6.78 4.373-8.996 2.916-2.269 6.858-3.403 11.825-3.403 2.16 0 4.239.243 6.237.729 2.052.486 3.942 1.162 5.669 2.026v-5.349c0-3.242-.917-5.673-2.753-7.294-1.836-1.675-4.509-2.512-8.019-2.512-1.997 0-4.022.297-6.074.891-1.998.54-4.212 1.432-6.642 2.675l-2.267-4.62c2.915-1.404 5.615-2.431 8.099-3.08a29.397 29.397 0 017.451-.972c5.13 0 9.072 1.216 11.825 3.647 2.808 2.431 4.212 5.916 4.212 10.455v27.312h-5.832v-3.972a19.735 19.735 0 01-6.074 3.566c-2.16.757-4.509 1.135-7.046 1.135zm-9.234-12.4c0 2.27.945 4.133 2.835 5.592 1.944 1.405 4.428 2.107 7.451 2.107 2.43 0 4.644-.378 6.642-1.134 1.998-.757 3.807-1.945 5.426-3.566v-7.618a16.906 16.906 0 00-5.426-2.432c-1.89-.54-3.996-.81-6.318-.81-3.239 0-5.831.73-7.775 2.188-1.89 1.405-2.835 3.296-2.835 5.673zM407.312 84.713c0 6.754-1.944 12.157-5.832 16.209-3.887 4.052-9.125 6.078-15.712 6.078-4.86 0-9.099-1.27-12.716-3.809-3.564-2.539-6.183-6.105-7.857-10.698l5.67-2.35c1.458 3.728 3.429 6.51 5.912 8.347 2.538 1.837 5.562 2.756 9.072 2.756 4.589 0 8.261-1.513 11.015-4.539 2.807-3.025 4.211-7.05 4.211-12.075V49.378h6.237v35.335zM420.563 96.383l4.131-4.295c2.915 3.08 6.02 5.43 9.314 7.05a24.54 24.54 0 0010.529 2.351c4.427 0 8.072-1.054 10.934-3.16 2.862-2.108 4.293-4.782 4.293-8.024 0-2.918-1.026-5.16-3.078-6.727-1.998-1.567-5.319-2.728-9.962-3.485l-8.181-1.296c-5.453-.865-9.476-2.459-12.068-4.782-2.591-2.377-3.887-5.565-3.887-9.563 0-4.7 1.836-8.51 5.507-11.427 3.672-2.918 8.478-4.377 14.417-4.377 3.942 0 7.856.649 11.744 1.945 3.888 1.297 7.424 3.161 10.61 5.592l-3.564 4.863c-3.077-2.323-6.209-4.08-9.395-5.268-3.186-1.188-6.398-1.783-9.638-1.783-4.05 0-7.343.946-9.881 2.837-2.484 1.837-3.726 4.214-3.726 7.132 0 2.647.891 4.673 2.673 6.078 1.782 1.405 4.725 2.431 8.828 3.08l8.1 1.296c6.155 1.027 10.637 2.783 13.444 5.268 2.862 2.486 4.293 5.916 4.293 10.293 0 2.485-.54 4.781-1.62 6.889-1.026 2.053-2.511 3.836-4.454 5.348-1.89 1.459-4.185 2.621-6.885 3.485-2.646.811-5.561 1.216-8.747 1.216-4.482 0-8.801-.892-12.959-2.674-4.104-1.837-7.694-4.458-10.772-7.862z" fill="#464646"/><path d="M526.191 58.243c1.424.356 7.255 14.05 4.787 28.527-2.468 14.478-12.655 24.169-13.723 23.902-1.068-.267-7.254-14.05-4.787-28.527 2.468-14.478 12.3-24.258 13.723-23.902z" fill="url(#paint0_linear)"/><path d="M527.115 57.542c-.387-1.386 9.453-11.143 24.221-13.776 14.768-2.632 28.967 3.204 29.258 4.244.29 1.04-9.453 11.143-24.221 13.776-14.768 2.632-28.87-2.858-29.258-4.244z" fill="url(#paint1_linear)"/><path fill-rule="evenodd" clip-rule="evenodd" d="M533.883 77.196c.482 3.266.518 7.31-.635 11.348a22.724 22.724 0 01-.79 2.291c.106.385.22.771.345 1.158 3.002 9.342 10.614 15.377 11.29 15.176.675-.2 3.421-9.312.418-18.654l-.023-.073a27.322 27.322 0 01-1.112-.732c-4.544-3.152-7.697-7.326-9.493-10.514z" fill="url(#paint2_linear)"/><path fill-rule="evenodd" clip-rule="evenodd" d="M546.64 64.934c2.777 1.789 5.836 4.31 8.414 7.618a30.211 30.211 0 011.547 2.18c.377.174.758.34 1.145.5 9.347 3.858 18.155 1.762 18.316 1.08.16-.68-6.17-9.01-15.498-12.874-.499.2-1.011.386-1.538.554-4.372 1.397-8.876 1.408-12.386.942z" fill="url(#paint3_linear)"/><path fill-rule="evenodd" clip-rule="evenodd" d="M529.932 61.093c1.146 1.694 3.019 6.268 3.805 12.073 1.684 3.105 3.969 6.414 6.96 9.422 8.989 9.04 21.175 11.745 21.814 11.142.639-.603-1.749-12.553-10.738-21.593-2.894-2.91-6.098-5.184-9.14-6.904-6.365-1.02-11.186-2.99-12.701-4.14z" fill="url(#paint4_linear)"/><defs><linearGradient id="paint0_linear" x1="525.662" y1="90.632" x2="541.686" y2="39.357" gradientUnits="userSpaceOnUse"><stop stop-color="#DE436D"/><stop offset="1" stop-color="#FF64CA"/></linearGradient><linearGradient id="paint1_linear" x1="548.159" y1="56.84" x2="546.524" y2="37.929" gradientUnits="userSpaceOnUse"><stop stop-color="#E4446F"/><stop offset="1" stop-color="#FF64CA"/></linearGradient><linearGradient id="paint2_linear" x1="535.448" y1="82.702" x2="536" y2="104.304" gradientUnits="userSpaceOnUse"><stop stop-color="#8940D2"/><stop offset="1" stop-color="#4069D2"/></linearGradient><linearGradient id="paint3_linear" x1="553.9" y1="67.859" x2="572.209" y2="73.854" gradientUnits="userSpaceOnUse"><stop stop-color="#8940D2"/><stop offset="1" stop-color="#4069D2"/></linearGradient><linearGradient id="paint4_linear" x1="543.286" y1="70.369" x2="539.262" y2="45.236" gradientUnits="userSpaceOnUse"><stop stop-color="#DE436D"/><stop offset="1" stop-color="#FF64CA"/></linearGradient></defs></svg>
