<svg width="402" height="55" fill="none" xmlns="http://www.w3.org/2000/svg"><path d="M0 49.605v-45.5h32.565v4.42H5.005v16.25h18.07v4.355H5.005v20.475H0zM46.054 17.04v19.63c0 2.86.823 5.135 2.47 6.825 1.647 1.69 3.857 2.535 6.63 2.535 1.95 0 3.683-.433 5.2-1.3 1.56-.91 2.817-2.167 3.77-3.77V17.04h4.81v32.565h-4.81v-3.77c-1.257 1.473-2.752 2.578-4.485 3.315-1.69.737-3.597 1.105-5.72 1.105-3.727 0-6.76-1.17-9.1-3.51s-3.51-5.373-3.51-9.1V17.04h4.745zM98.173 45.835c1.733 0 3.402-.347 5.005-1.04 1.603-.693 3.098-1.712 4.485-3.055l2.99 3.25a19.259 19.259 0 01-5.85 3.835 17.29 17.29 0 01-6.76 1.365c-2.297 0-4.464-.433-6.5-1.3-2.037-.867-3.792-2.058-5.265-3.575-1.474-1.517-2.644-3.315-3.51-5.395-.867-2.08-1.3-4.29-1.3-6.63s.433-4.528 1.3-6.565c.867-2.08 2.037-3.878 3.51-5.395 1.473-1.517 3.228-2.708 5.265-3.575 2.036-.91 4.203-1.365 6.5-1.365 2.34 0 4.615.455 6.825 1.365 2.253.91 4.225 2.167 5.915 3.77l-3.055 3.51a13.938 13.938 0 00-4.485-3.12c-1.69-.737-3.402-1.105-5.135-1.105-1.647 0-3.207.325-4.68.975a11.955 11.955 0 00-3.835 2.665c-1.04 1.127-1.864 2.448-2.47 3.965-.607 1.517-.91 3.142-.91 4.875 0 1.777.303 3.445.91 5.005.65 1.517 1.495 2.838 2.535 3.965a12.496 12.496 0 003.835 2.6c1.473.65 3.033.975 4.68.975zM122.138 49.605v-45.5L126.948 3v17.875c1.257-1.473 2.752-2.578 4.485-3.315 1.733-.78 3.662-1.17 5.785-1.17 3.683 0 6.695 1.17 9.035 3.51s3.51 5.373 3.51 9.1v20.605h-4.745v-19.63c0-2.86-.823-5.135-2.47-6.825-1.647-1.69-3.857-2.535-6.63-2.535-1.95 0-3.705.433-5.265 1.3-1.517.867-2.752 2.102-3.705 3.705v23.985h-4.81zM160.347 45.12l2.925-3.12a16.84 16.84 0 004.94 3.25c1.863.737 3.748 1.105 5.655 1.105 2.6 0 4.723-.542 6.37-1.625 1.647-1.083 2.47-2.492 2.47-4.225 0-1.387-.498-2.47-1.495-3.25-.953-.823-2.47-1.387-4.55-1.69l-5.655-.78c-3.25-.477-5.677-1.43-7.28-2.86-1.56-1.473-2.34-3.445-2.34-5.915 0-2.73 1.148-4.983 3.445-6.76 2.297-1.82 5.222-2.73 8.775-2.73 2.34 0 4.55.347 6.63 1.04 2.123.693 4.182 1.777 6.175 3.25l-2.535 3.25c-1.82-1.213-3.597-2.123-5.33-2.73a15.278 15.278 0 00-5.2-.91c-2.21 0-4.03.498-5.46 1.495-1.387.997-2.08 2.297-2.08 3.9 0 1.387.477 2.47 1.43 3.25.953.737 2.492 1.257 4.615 1.56l5.655.78c3.25.433 5.677 1.408 7.28 2.925 1.647 1.473 2.47 3.445 2.47 5.915 0 1.387-.347 2.708-1.04 3.965-.65 1.213-1.582 2.275-2.795 3.185-1.17.867-2.557 1.56-4.16 2.08-1.603.477-3.337.715-5.2.715-2.687 0-5.222-.433-7.605-1.3-2.34-.91-4.377-2.167-6.11-3.77zM200.926 10.8c-.867 0-1.625-.325-2.275-.975-.65-.65-.975-1.408-.975-2.275 0-.91.325-1.668.975-2.275.65-.65 1.408-.975 2.275-.975.91 0 1.668.325 2.275.975.65.607.975 1.365.975 2.275 0 .867-.325 1.625-.975 2.275-.607.65-1.365.975-2.275.975zm2.405 6.24v32.565h-4.81V17.04h4.81zM227.653 50.19c-3.553 0-6.456-.91-8.71-2.73-2.21-1.82-3.315-4.182-3.315-7.085 0-3.033 1.17-5.438 3.51-7.215 2.34-1.82 5.504-2.73 9.49-2.73 1.734 0 3.402.195 5.005.585 1.647.39 3.164.932 4.55 1.625v-4.29c0-2.6-.736-4.55-2.21-5.85-1.473-1.343-3.618-2.015-6.435-2.015-1.603 0-3.228.238-4.875.715-1.603.433-3.38 1.148-5.33 2.145l-1.82-3.705c2.34-1.127 4.507-1.95 6.5-2.47 1.994-.52 3.987-.78 5.98-.78 4.117 0 7.28.975 9.49 2.925 2.254 1.95 3.38 4.745 3.38 8.385v21.905h-4.68V46.42a15.854 15.854 0 01-4.875 2.86c-1.733.607-3.618.91-5.655.91zm-7.41-9.945c0 1.82.759 3.315 2.275 4.485 1.56 1.127 3.554 1.69 5.98 1.69 1.95 0 3.727-.303 5.33-.91 1.604-.607 3.055-1.56 4.355-2.86v-6.11a13.58 13.58 0 00-4.355-1.95c-1.516-.433-3.206-.65-5.07-.65-2.6 0-4.68.585-6.24 1.755-1.516 1.127-2.275 2.643-2.275 4.55zM287.559 32.445c0 5.417-1.56 9.75-4.68 13-3.12 3.25-7.323 4.875-12.61 4.875-3.9 0-7.302-1.018-10.205-3.055-2.86-2.037-4.962-4.897-6.305-8.58l4.55-1.885c1.17 2.99 2.752 5.222 4.745 6.695 2.037 1.473 4.463 2.21 7.28 2.21 3.683 0 6.63-1.213 8.84-3.64 2.253-2.427 3.38-5.655 3.38-9.685V4.105h5.005v28.34zM298.194 41.805l3.315-3.445c2.34 2.47 4.831 4.355 7.475 5.655a19.71 19.71 0 008.45 1.885c3.553 0 6.478-.845 8.775-2.535 2.296-1.69 3.445-3.835 3.445-6.435 0-2.34-.824-4.138-2.47-5.395-1.604-1.257-4.269-2.188-7.995-2.795l-6.565-1.04c-4.377-.693-7.605-1.972-9.685-3.835-2.08-1.907-3.12-4.463-3.12-7.67 0-3.77 1.473-6.825 4.42-9.165 2.946-2.34 6.803-3.51 11.57-3.51 3.163 0 6.305.52 9.425 1.56a29.12 29.12 0 018.515 4.485l-2.86 3.9c-2.47-1.863-4.984-3.272-7.54-4.225-2.557-.953-5.135-1.43-7.735-1.43-3.25 0-5.894.758-7.93 2.275-1.994 1.473-2.99 3.38-2.99 5.72 0 2.123.715 3.748 2.145 4.875 1.43 1.127 3.791 1.95 7.085 2.47l6.5 1.04c4.94.823 8.536 2.232 10.79 4.225 2.296 1.993 3.445 4.745 3.445 8.255 0 1.993-.434 3.835-1.3 5.525-.824 1.647-2.015 3.077-3.575 4.29-1.517 1.17-3.359 2.102-5.525 2.795-2.124.65-4.464.975-7.02.975-3.597 0-7.064-.715-10.4-2.145-3.294-1.473-6.175-3.575-8.645-6.305z" fill="#464646"/><path d="M360.095 14.234c1.027.264 5.235 10.398 3.461 21.107-1.773 10.709-9.114 17.872-9.884 17.674-.769-.198-5.234-10.398-3.461-21.107 1.774-10.709 8.858-17.938 9.884-17.674z" fill="url(#paint0_linear)"/><path d="M360.784 13.714c-.279-1.025 6.817-8.242 17.467-10.189 10.649-1.947 20.888 2.37 21.098 3.139.21.768-6.817 8.242-17.466 10.188-10.649 1.947-20.819-2.113-21.099-3.138z" fill="url(#paint1_linear)"/><path fill-rule="evenodd" clip-rule="evenodd" d="M365.665 28.25c.347 2.416.373 5.407-.458 8.393-.163.585-.355 1.15-.57 1.695.076.285.159.57.249.856 2.165 6.91 7.654 11.373 8.141 11.225.487-.149 2.467-6.888.302-13.797l-.017-.054a20.217 20.217 0 01-.802-.541c-3.276-2.332-5.55-5.42-6.845-7.777z" fill="url(#paint2_linear)"/><path fill-rule="evenodd" clip-rule="evenodd" d="M374.864 19.18c2.003 1.324 4.209 3.188 6.068 5.635.402.53.773 1.069 1.116 1.613.271.128.546.252.825.37 6.74 2.853 13.092 1.303 13.208.799.115-.504-4.45-6.665-11.176-9.522-.36.148-.729.285-1.109.41-3.153 1.032-6.401 1.04-8.932.696z" fill="url(#paint3_linear)"/><path fill-rule="evenodd" clip-rule="evenodd" d="M362.816 16.34c.826 1.253 2.177 4.636 2.743 8.93 1.215 2.296 2.862 4.743 5.02 6.968 6.482 6.686 15.27 8.687 15.73 8.24.461-.445-1.261-9.284-7.744-15.97-2.087-2.152-4.397-3.834-6.59-5.106-4.591-.755-8.067-2.211-9.159-3.062z" fill="url(#paint4_linear)"/><defs><linearGradient id="paint0_linear" x1="359.725" y1="38.195" x2="371.853" y2=".463" gradientUnits="userSpaceOnUse"><stop stop-color="#DE436D"/><stop offset="1" stop-color="#FF64CA"/></linearGradient><linearGradient id="paint1_linear" x1="375.96" y1="13.194" x2="374.72" y2="-.787" gradientUnits="userSpaceOnUse"><stop stop-color="#E4446F"/><stop offset="1" stop-color="#FF64CA"/></linearGradient><linearGradient id="paint2_linear" x1="366.793" y1="32.322" x2="367.212" y2="48.299" gradientUnits="userSpaceOnUse"><stop stop-color="#8940D2"/><stop offset="1" stop-color="#4069D2"/></linearGradient><linearGradient id="paint3_linear" x1="380.099" y1="21.345" x2="393.366" y2="25.58" gradientUnits="userSpaceOnUse"><stop stop-color="#8940D2"/><stop offset="1" stop-color="#4069D2"/></linearGradient><linearGradient id="paint4_linear" x1="372.445" y1="23.201" x2="369.397" y2="4.636" gradientUnits="userSpaceOnUse"><stop stop-color="#DE436D"/><stop offset="1" stop-color="#FF64CA"/></linearGradient></defs></svg>
