<svg width="632" height="151" fill="none" xmlns="http://www.w3.org/2000/svg"><path fill="#FAFAFA" d="M0 0h632v151H0z"/><path d="M34 107.345V45.826h45.159v5.976H40.94v21.971h25.058v5.889H40.94v27.683H34zM97.864 63.315v26.541c0 3.867 1.142 6.943 3.426 9.228 2.283 2.285 5.348 3.427 9.194 3.427 2.704 0 5.107-.585 7.211-1.757 2.163-1.23 3.905-2.93 5.227-5.098v-32.34h6.671v44.029h-6.671v-5.097c-1.742 1.992-3.815 3.486-6.219 4.482-2.344.996-4.988 1.494-7.932 1.494-5.168 0-9.374-1.582-12.62-4.746-3.244-3.164-4.867-7.265-4.867-12.304V63.315h6.58zM170.139 102.248c2.404 0 4.717-.469 6.94-1.406 2.224-.938 4.297-2.315 6.22-4.13l4.146 4.393a26.767 26.767 0 01-8.112 5.185 24.495 24.495 0 01-9.374 1.846c-3.185 0-6.19-.586-9.014-1.758-2.824-1.171-5.258-2.783-7.301-4.833-2.043-2.05-3.666-4.482-4.868-7.295-1.201-2.812-1.802-5.8-1.802-8.964 0-3.164.601-6.123 1.802-8.876 1.202-2.813 2.825-5.244 4.868-7.295 2.043-2.05 4.477-3.661 7.301-4.833 2.824-1.23 5.829-1.846 9.014-1.846 3.245 0 6.399.615 9.464 1.846 3.125 1.23 5.859 2.93 8.203 5.097l-4.237 4.746a19.355 19.355 0 00-6.219-4.219c-2.344-.996-4.718-1.494-7.121-1.494-2.284 0-4.447.44-6.49 1.319s-3.816 2.08-5.318 3.603c-1.442 1.523-2.584 3.31-3.425 5.36-.842 2.052-1.262 4.249-1.262 6.592 0 2.402.42 4.658 1.262 6.767.901 2.05 2.073 3.838 3.515 5.361 1.502 1.465 3.275 2.637 5.318 3.516a16.263 16.263 0 006.49 1.318zM203.372 107.345V45.826l6.67-1.494V68.5c1.743-1.992 3.816-3.486 6.22-4.482 2.403-1.054 5.077-1.582 8.022-1.582 5.108 0 9.284 1.582 12.529 4.746 3.245 3.164 4.867 7.265 4.867 12.304v27.859h-6.58V80.804c0-3.867-1.141-6.943-3.425-9.228-2.283-2.285-5.348-3.427-9.194-3.427-2.704 0-5.138.586-7.301 1.757-2.103 1.172-3.816 2.842-5.138 5.01v32.429h-6.67zM256.357 101.281l4.056-4.218a23.44 23.44 0 006.851 4.394c2.584.996 5.198 1.494 7.842 1.494 3.605 0 6.55-.733 8.833-2.197 2.284-1.465 3.425-3.37 3.425-5.713 0-1.875-.691-3.34-2.073-4.394-1.322-1.113-3.425-1.875-6.309-2.285l-7.842-1.054c-4.507-.645-7.872-1.934-10.096-3.867-2.163-1.993-3.245-4.658-3.245-7.998 0-3.691 1.593-6.738 4.778-9.14 3.185-2.46 7.241-3.691 12.168-3.691 3.245 0 6.31.469 9.194 1.406 2.945.938 5.799 2.402 8.563 4.394l-3.515 4.395c-2.524-1.64-4.988-2.871-7.391-3.692a21.684 21.684 0 00-7.211-1.23c-3.065 0-5.589.674-7.572 2.021-1.923 1.348-2.884 3.106-2.884 5.273 0 1.875.661 3.34 1.983 4.395 1.322.996 3.455 1.699 6.4 2.109l7.841 1.054c4.507.586 7.872 1.905 10.096 3.955 2.283 1.992 3.425 4.658 3.425 7.998 0 1.875-.481 3.662-1.442 5.361-.901 1.64-2.193 3.076-3.876 4.306-1.622 1.172-3.545 2.109-5.769 2.812-2.223.645-4.627.967-7.211.967-3.725 0-7.241-.586-10.546-1.758-3.245-1.23-6.069-2.929-8.473-5.097zM312.629 54.878c-1.202 0-2.253-.44-3.155-1.318-.901-.879-1.352-1.904-1.352-3.076 0-1.23.451-2.256 1.352-3.076.902-.879 1.953-1.318 3.155-1.318 1.262 0 2.313.44 3.155 1.318.901.82 1.352 1.846 1.352 3.076 0 1.172-.451 2.197-1.352 3.076-.842.879-1.893 1.318-3.155 1.318zm3.335 8.437v44.03h-6.67v-44.03h6.67zM349.693 108.136c-4.928 0-8.954-1.23-12.078-3.691-3.065-2.461-4.597-5.654-4.597-9.58 0-4.1 1.622-7.352 4.867-9.755 3.245-2.46 7.632-3.69 13.16-3.69 2.404 0 4.717.263 6.941.79 2.283.528 4.386 1.26 6.309 2.197v-5.8c0-3.515-1.021-6.152-3.064-7.91-2.044-1.816-5.018-2.724-8.924-2.724-2.223 0-4.477.322-6.76.967-2.224.586-4.687 1.552-7.392 2.9l-2.523-5.01c3.245-1.523 6.249-2.636 9.013-3.34a33.534 33.534 0 018.293-1.054c5.709 0 10.095 1.319 13.16 3.955 3.125 2.637 4.687 6.416 4.687 11.337v29.617h-6.49v-4.306a22.128 22.128 0 01-6.76 3.867c-2.404.82-5.018 1.23-7.842 1.23zM339.417 94.69c0 2.46 1.052 4.482 3.155 6.064 2.163 1.523 4.928 2.285 8.293 2.285 2.704 0 5.168-.41 7.391-1.231 2.223-.82 4.236-2.109 6.039-3.867v-8.26a19.08 19.08 0 00-6.039-2.637c-2.103-.586-4.447-.879-7.031-.879-3.605 0-6.49.79-8.653 2.373-2.103 1.523-3.155 3.574-3.155 6.152zM432.766 84.144c0 7.323-2.164 13.182-6.49 17.576-4.327 4.395-10.156 6.592-17.487 6.592-5.408 0-10.125-1.377-14.151-4.131-3.966-2.753-6.881-6.62-8.744-11.6l6.31-2.55c1.622 4.043 3.816 7.06 6.58 9.053 2.824 1.992 6.189 2.988 10.095 2.988 5.108 0 9.194-1.64 12.259-4.922 3.125-3.28 4.687-7.645 4.687-13.094v-38.23h6.941v38.318zM447.513 96.799l4.597-4.658c3.245 3.34 6.7 5.888 10.366 7.646a27.921 27.921 0 0011.718 2.549c4.927 0 8.983-1.143 12.168-3.428 3.185-2.285 4.777-5.185 4.777-8.7 0-3.164-1.141-5.596-3.425-7.295-2.223-1.699-5.919-2.959-11.087-3.779l-9.104-1.406c-6.069-.937-10.546-2.666-13.43-5.185-2.884-2.578-4.327-6.035-4.327-10.37 0-5.098 2.044-9.228 6.13-12.392 4.086-3.164 9.434-4.746 16.044-4.746 4.387 0 8.743.703 13.07 2.11 4.327 1.406 8.263 3.427 11.808 6.063l-3.966 5.273c-3.425-2.519-6.911-4.423-10.456-5.712-3.545-1.289-7.121-1.933-10.726-1.933-4.507 0-8.173 1.025-10.997 3.075-2.764 1.992-4.146 4.57-4.146 7.734 0 2.871.991 5.068 2.974 6.592 1.983 1.523 5.258 2.636 9.825 3.34l9.014 1.405c6.85 1.114 11.838 3.018 14.963 5.713 3.185 2.695 4.777 6.415 4.777 11.161 0 2.695-.601 5.185-1.803 7.47-1.142 2.227-2.794 4.16-4.957 5.801-2.104 1.582-4.657 2.841-7.662 3.779-2.944.878-6.189 1.318-9.735 1.318-4.987 0-9.795-.967-14.422-2.9-4.567-1.992-8.563-4.834-11.988-8.525z" fill="#464646"/><path d="M550.079 58.243c1.424.356 7.254 14.05 4.787 28.527-2.468 14.478-12.656 24.169-13.724 23.902-1.067-.267-7.254-14.05-4.786-28.527 2.468-14.478 12.299-24.258 13.723-23.902z" fill="url(#paint0_linear)"/><path d="M551.003 57.542c-.388-1.386 9.453-11.143 24.221-13.776 14.767-2.632 28.967 3.204 29.257 4.244.291 1.04-9.453 11.143-24.22 13.776-14.768 2.632-28.871-2.858-29.258-4.244z" fill="url(#paint1_linear)"/><path fill-rule="evenodd" clip-rule="evenodd" d="M557.771 77.196c.482 3.266.518 7.31-.635 11.348a22.481 22.481 0 01-.791 2.291c.106.385.221.771.345 1.158 3.002 9.342 10.615 15.377 11.291 15.176.675-.2 3.42-9.312.418-18.654l-.023-.073a27.352 27.352 0 01-1.113-.732c-4.543-3.152-7.696-7.326-9.492-10.514z" fill="url(#paint2_linear)"/><path fill-rule="evenodd" clip-rule="evenodd" d="M570.527 64.934c2.778 1.789 5.837 4.31 8.414 7.618a29.919 29.919 0 011.548 2.18c.376.174.758.34 1.145.5 9.347 3.858 18.155 1.762 18.315 1.08.161-.68-6.17-9.01-15.498-12.874-.498.2-1.011.386-1.537.554-4.373 1.397-8.876 1.408-12.387.942z" fill="url(#paint3_linear)"/><path fill-rule="evenodd" clip-rule="evenodd" d="M553.82 61.093c1.146 1.694 3.019 6.268 3.804 12.073 1.685 3.105 3.969 6.414 6.961 9.422 8.989 9.04 21.175 11.745 21.814 11.142.639-.603-1.75-12.553-10.739-21.593-2.894-2.91-6.097-5.184-9.139-6.904-6.365-1.02-11.187-2.99-12.701-4.14z" fill="url(#paint4_linear)"/><defs><linearGradient id="paint0_linear" x1="549.549" y1="90.632" x2="565.573" y2="39.357" gradientUnits="userSpaceOnUse"><stop stop-color="#DE436D"/><stop offset="1" stop-color="#FF64CA"/></linearGradient><linearGradient id="paint1_linear" x1="572.047" y1="56.84" x2="570.411" y2="37.929" gradientUnits="userSpaceOnUse"><stop stop-color="#E4446F"/><stop offset="1" stop-color="#FF64CA"/></linearGradient><linearGradient id="paint2_linear" x1="559.336" y1="82.702" x2="559.887" y2="104.304" gradientUnits="userSpaceOnUse"><stop stop-color="#8940D2"/><stop offset="1" stop-color="#4069D2"/></linearGradient><linearGradient id="paint3_linear" x1="577.787" y1="67.859" x2="596.096" y2="73.854" gradientUnits="userSpaceOnUse"><stop stop-color="#8940D2"/><stop offset="1" stop-color="#4069D2"/></linearGradient><linearGradient id="paint4_linear" x1="567.174" y1="70.369" x2="563.149" y2="45.236" gradientUnits="userSpaceOnUse"><stop stop-color="#DE436D"/><stop offset="1" stop-color="#FF64CA"/></linearGradient></defs></svg>
