<svg width="982" height="133" fill="none" xmlns="http://www.w3.org/2000/svg"><path d="M0 120.3V9.955h79.715v10.72H12.252v39.408h44.233v10.562H12.252V120.3H0zM112.734 41.325V88.93c0 6.936 2.016 12.453 6.046 16.552 4.031 4.098 9.441 6.148 16.23 6.148 4.773 0 9.016-1.051 12.729-3.153 3.818-2.207 6.895-5.255 9.228-9.143v-58.01h11.774V120.3h-11.774v-9.143c-3.076 3.573-6.736 6.253-10.978 8.039-4.137 1.787-8.805 2.68-14.002 2.68-9.123 0-16.548-2.838-22.276-8.512-5.728-5.675-8.592-13.031-8.592-22.07v-49.97h11.615zM240.314 111.157c4.243 0 8.327-.841 12.252-2.522 3.925-1.682 7.584-4.151 10.979-7.409l7.319 7.881c-4.243 3.994-9.017 7.094-14.32 9.301a42.664 42.664 0 01-16.548 3.31c-5.622 0-10.926-1.051-15.911-3.152-4.986-2.102-9.282-4.992-12.888-8.67-3.607-3.678-6.471-8.04-8.592-13.084-2.122-5.044-3.182-10.404-3.182-16.079 0-5.675 1.06-10.982 3.182-15.92 2.121-5.045 4.985-9.406 8.592-13.085 3.606-3.678 7.902-6.568 12.888-8.67 4.985-2.206 10.289-3.31 15.911-3.31 5.728 0 11.297 1.104 16.707 3.31 5.516 2.208 10.342 5.255 14.479 9.143l-7.478 8.513c-3.183-3.258-6.842-5.78-10.979-7.567-4.137-1.786-8.327-2.68-12.57-2.68-4.031 0-7.849.789-11.456 2.365-3.606 1.576-6.736 3.73-9.387 6.463-2.546 2.732-4.562 5.938-6.047 9.616-1.485 3.678-2.227 7.619-2.227 11.822 0 4.309.742 8.355 2.227 12.138 1.591 3.678 3.66 6.883 6.206 9.616 2.652 2.627 5.781 4.729 9.387 6.305 3.607 1.577 7.425 2.365 11.456 2.365zM298.978 120.3V9.955l11.774-2.68v43.35c3.076-3.573 6.736-6.253 10.979-8.04 4.243-1.89 8.963-2.837 14.161-2.837 9.016 0 16.388 2.838 22.116 8.513 5.728 5.674 8.592 13.03 8.592 22.068V120.3h-11.615V72.694c0-6.936-2.015-12.453-6.046-16.552-4.031-4.098-9.441-6.148-16.229-6.148-4.774 0-9.07 1.051-12.888 3.153-3.713 2.102-6.736 5.097-9.07 8.985V120.3h-11.774zM392.508 109.423l7.16-7.567c3.607 3.363 7.638 5.99 12.093 7.882 4.561 1.787 9.175 2.68 13.842 2.68 6.365 0 11.562-1.314 15.593-3.941 4.031-2.627 6.047-6.043 6.047-10.246 0-3.363-1.22-5.99-3.66-7.882-2.334-1.997-6.046-3.363-11.138-4.099l-13.843-1.891c-7.955-1.156-13.895-3.468-17.82-6.936-3.819-3.573-5.728-8.355-5.728-14.345 0-6.62 2.811-12.085 8.433-16.394 5.622-4.414 12.782-6.62 21.48-6.62 5.728 0 11.138.84 16.229 2.522 5.198 1.681 10.236 4.308 15.116 7.881l-6.205 7.882c-4.456-2.942-8.805-5.15-13.048-6.62a37.715 37.715 0 00-12.729-2.207c-5.409 0-9.864 1.208-13.365 3.625-3.394 2.417-5.091 5.57-5.091 9.458 0 3.363 1.166 5.99 3.5 7.882 2.334 1.787 6.099 3.048 11.297 3.783l13.843 1.892c7.955 1.05 13.895 3.415 17.82 7.093 4.031 3.574 6.046 8.355 6.046 14.345 0 3.363-.848 6.568-2.545 9.616-1.592 2.942-3.872 5.517-6.842 7.724-2.864 2.102-6.259 3.783-10.183 5.044-3.925 1.156-8.168 1.734-12.729 1.734-6.577 0-12.782-1.051-18.616-3.152-5.728-2.207-10.714-5.255-14.957-9.143zM491.84 26.192c-2.122 0-3.978-.788-5.569-2.365-1.591-1.576-2.387-3.415-2.387-5.517 0-2.207.796-4.046 2.387-5.517 1.591-1.577 3.447-2.365 5.569-2.365 2.227 0 4.084.788 5.569 2.365 1.591 1.471 2.386 3.31 2.386 5.517 0 2.102-.795 3.94-2.386 5.517-1.485 1.576-3.342 2.365-5.569 2.365zm5.887 15.133V120.3h-11.774V41.325h11.774zM557.266 121.718c-8.698 0-15.805-2.207-21.321-6.62-5.41-4.414-8.115-10.142-8.115-17.183 0-7.356 2.864-13.188 8.592-17.497 5.728-4.414 13.471-6.62 23.23-6.62 4.243 0 8.327.472 12.252 1.418 4.031.946 7.743 2.26 11.138 3.94V68.754c0-6.305-1.804-11.034-5.41-14.187-3.607-3.258-8.857-4.887-15.752-4.887-3.925 0-7.903.578-11.933 1.734-3.925 1.051-8.274 2.785-13.048 5.202l-4.455-8.985c5.728-2.732 11.032-4.729 15.911-5.99 4.88-1.261 9.759-1.892 14.639-1.892 10.077 0 17.82 2.365 23.23 7.094 5.516 4.729 8.274 11.507 8.274 20.335V120.3h-11.456v-7.725c-3.607 3.048-7.585 5.36-11.934 6.936-4.243 1.472-8.857 2.207-13.842 2.207zM539.127 97.6c0 4.414 1.856 8.04 5.569 10.877 3.819 2.732 8.698 4.098 14.638 4.098 4.773 0 9.123-.735 13.047-2.206 3.925-1.472 7.479-3.784 10.661-6.936V88.615a33.407 33.407 0 00-10.661-4.729c-3.712-1.05-7.849-1.576-12.41-1.576-6.365 0-11.456 1.418-15.275 4.256-3.713 2.732-5.569 6.41-5.569 11.034zM703.907 78.684c0 13.136-3.819 23.645-11.456 31.527-7.638 7.882-17.927 11.823-30.868 11.823-9.547 0-17.873-2.47-24.98-7.409-7.001-4.94-12.146-11.875-15.434-20.808l11.138-4.571c2.864 7.25 6.735 12.663 11.615 16.236 4.985 3.573 10.925 5.359 17.82 5.359 9.017 0 16.23-2.942 21.639-8.827 5.516-5.885 8.274-13.714 8.274-23.488V9.956h12.252v68.728zM729.939 101.383l8.115-8.354c5.728 5.99 11.827 10.561 18.297 13.714 6.577 3.048 13.472 4.571 20.685 4.571 8.698 0 15.858-2.049 21.48-6.147 5.622-4.099 8.433-9.3 8.433-15.606 0-5.675-2.016-10.036-6.046-13.084-3.925-3.047-10.449-5.307-19.571-6.778l-16.07-2.522c-10.714-1.682-18.616-4.782-23.708-9.3-5.092-4.625-7.637-10.825-7.637-18.602 0-9.142 3.606-16.551 10.819-22.226 7.213-5.675 16.654-8.512 28.322-8.512 7.744 0 15.434 1.26 23.071 3.783 7.638 2.522 14.585 6.148 20.844 10.877l-7.001 9.458c-6.046-4.52-12.199-7.935-18.457-10.247-6.258-2.312-12.57-3.468-18.934-3.468-7.956 0-14.426 1.84-19.412 5.518-4.879 3.573-7.319 8.197-7.319 13.872 0 5.149 1.75 9.09 5.251 11.822 3.5 2.733 9.281 4.73 17.343 5.99l15.911 2.522c12.093 1.997 20.897 5.412 26.413 10.247 5.622 4.834 8.432 11.507 8.432 20.02 0 4.833-1.06 9.3-3.182 13.398-2.015 3.994-4.932 7.462-8.751 10.404-3.713 2.838-8.221 5.097-13.524 6.778-5.198 1.577-10.926 2.365-17.184 2.365-8.805 0-17.291-1.734-25.458-5.202-8.062-3.573-15.116-8.67-21.162-15.291z" fill="#464646"/><path d="M881.466 34.52c2.512.64 12.813 25.216 8.472 51.187-4.341 25.971-22.309 43.342-24.194 42.862-1.885-.48-12.814-25.216-8.473-51.187 4.342-25.97 21.682-43.502 24.195-42.862z" fill="url(#paint0_linear)"/><path d="M883.153 33.259c-.684-2.487 16.687-19.988 42.755-24.71 26.068-4.721 51.133 5.747 51.646 7.611.513 1.865-16.686 19.988-42.755 24.71-26.068 4.721-50.962-5.125-51.646-7.611z" fill="url(#paint1_linear)"/><path fill-rule="evenodd" clip-rule="evenodd" d="M895.1 68.511c.85 5.859.914 13.112-1.121 20.354a41.248 41.248 0 01-1.395 4.11c.187.69.389 1.383.608 2.076 5.3 16.757 18.738 27.582 19.93 27.222 1.193-.36 6.039-16.703.739-33.46l-.041-.13a48.11 48.11 0 01-1.964-1.313c-8.02-5.654-13.585-13.142-16.756-18.859z" fill="url(#paint2_linear)"/><path fill-rule="evenodd" clip-rule="evenodd" d="M917.618 46.516c4.903 3.21 10.303 7.73 14.853 13.664a54.157 54.157 0 012.732 3.912c.664.311 1.337.61 2.02.896 16.5 6.92 32.048 3.16 32.331 1.938.283-1.22-10.892-16.161-27.358-23.092-.879.36-1.784.692-2.713.993-7.719 2.506-15.669 2.525-21.865 1.689z" fill="url(#paint3_linear)"/><path fill-rule="evenodd" clip-rule="evenodd" d="M888.125 39.628c2.023 3.037 5.33 11.242 6.716 21.655 2.974 5.57 7.006 11.503 12.287 16.899 15.868 16.213 37.379 21.066 38.507 19.985 1.128-1.081-3.088-22.516-18.956-38.73-5.109-5.22-10.764-9.3-16.134-12.384-11.236-1.83-19.746-5.362-22.42-7.425z" fill="url(#paint4_linear)"/><defs><linearGradient id="paint0_linear" x1="880.56" y1="92.628" x2="909.75" y2=".964" gradientUnits="userSpaceOnUse"><stop stop-color="#DE436D"/><stop offset="1" stop-color="#FF64CA"/></linearGradient><linearGradient id="paint1_linear" x1="920.3" y1="31.998" x2="917.32" y2="-1.913" gradientUnits="userSpaceOnUse"><stop stop-color="#E4446F"/><stop offset="1" stop-color="#FF64CA"/></linearGradient><linearGradient id="paint2_linear" x1="897.862" y1="78.387" x2="898.868" y2="117.132" gradientUnits="userSpaceOnUse"><stop stop-color="#8940D2"/><stop offset="1" stop-color="#4069D2"/></linearGradient><linearGradient id="paint3_linear" x1="930.434" y1="51.764" x2="962.851" y2="62.21" gradientUnits="userSpaceOnUse"><stop stop-color="#8940D2"/><stop offset="1" stop-color="#4069D2"/></linearGradient><linearGradient id="paint4_linear" x1="911.698" y1="56.265" x2="904.369" y2="11.221" gradientUnits="userSpaceOnUse"><stop stop-color="#DE436D"/><stop offset="1" stop-color="#FF64CA"/></linearGradient></defs></svg>
